<svg xmlns="http://www.w3.org/2000/svg" width="51" height="48" viewBox="0 0 51 48">
  <metadata><?xpacket begin="﻿" id="W5M0MpCehiHzreSzNTczkc9d"?>
<x:xmpmeta xmlns:x="adobe:ns:meta/" x:xmptk="Adobe XMP Core 5.6-c138 79.159824, 2016/09/14-01:09:01        ">
   <rdf:RDF xmlns:rdf="http://www.w3.org/1999/02/22-rdf-syntax-ns#">
      <rdf:Description rdf:about=""/>
   </rdf:RDF>
</x:xmpmeta>
                                                                                                    
                                                                                                    
                                                                                                    
                                                                                                    
                                                                                                    
                                                                                                    
                                                                                                    
                                                                                                    
                                                                                                    
                                                                                                    
                                                                                                    
                                                                                                    
                                                                                                    
                                                                                                    
                                                                                                    
                                                                                                    
                                                                                                    
                                                                                                    
                                                                                                    
                                                                                                    
                           
<?xpacket end="w"?></metadata>
<defs>
    <style>
      .cls-1 {
        stroke: #313131;
        stroke-width: 1px;
        fill-rule: evenodd;
      }
    </style>
  </defs>
  <path id="_1" data-name="1" class="cls-1" d="M454.493,2168.49a4.647,4.647,0,0,0,6.28-1.69,4.514,4.514,0,0,0-1.72-6.2,4.627,4.627,0,0,0-6.279,1.69A4.515,4.515,0,0,0,454.493,2168.49Zm18.657,5.96a2.491,2.491,0,0,0-2.963-1.89l-7.238,1.54-5.423-1.2a3.921,3.921,0,0,0-1.262-1.14l-1.879-1.06a3.574,3.574,0,0,0-2.727-.3c-1.681.59,4.323-1.61-9.012,3.29a2.621,2.621,0,0,0-.74.43l-8.153,6.81a2.43,2.43,0,0,0-.292,3.46,2.5,2.5,0,0,0,3.514.29l7.82-6.53,1.6-.58c-5.063,8.75-2.725,4.44-8.918,16.45l-7.658,8a2.922,2.922,0,0,0,.121,4.17,3.008,3.008,0,0,0,4.231-.12l7.954-8.31a2.876,2.876,0,0,0,.491-0.68l3.659-7.1,9.257,5.68-0.588,8.18a2.992,2.992,0,0,0,5.969.42l0.717-9.96a2.932,2.932,0,0,0-1.405-2.71l-8.014-4.92,5.075-8.78,5.108,1.13a2.589,2.589,0,0,0,1.073.01l7.775-1.66A2.453,2.453,0,0,0,473.15,2174.45Zm0.582,22.15a5.2,5.2,0,1,0,5.268,5.19A5.227,5.227,0,0,0,473.732,2196.6Z" transform="translate(-428.5 -2159.5)"/>
</svg>
